HIERARCHY
ROOT SpineBase
{
  OFFSET 0.000000 0.000000 0.000000
  CHANNELS 6 Xposition Yposition Zposition Zrotation Xrotation Yrotation
  JOINT SpineMid
  {
    OFFSET -0.000000 30.708997 0.000000
    CHANNELS 3 Zrotation Xrotation Yrotation
    JOINT SpineShoulder
    {
      OFFSET -0.110008 22.854632 -0.737312
      CHANNELS 3 Zrotation Xrotation Yrotation
      JOINT Neck
      {
        OFFSET -0.091351 7.574716 -0.573706
        CHANNELS 3 Zrotation Xrotation Yrotation
        JOINT Head
        {
          OFFSET 3.024034 13.288963 0.371280
          CHANNELS 3 Zrotation Xrotation Yrotation
          End Site
          {
            OFFSET 0 0 0
          }
        }
      }
      JOINT ShoulderLeft
      {
        OFFSET -16.292176 -2.405979 -3.145995
        CHANNELS 3 Zrotation Xrotation Yrotation
        JOINT ElbowLeft
        {
          OFFSET -4.081085 -24.725059 -1.452268
          CHANNELS 3 Zrotation Xrotation Yrotation
          JOINT WristLeft
          {
            OFFSET 0.890615 -20.264739 -6.565831
            CHANNELS 3 Zrotation Xrotation Yrotation
            JOINT HandLeft
            {
              OFFSET 1.885290 -4.287034 0.454342
              CHANNELS 3 Zrotation Xrotation Yrotation
              JOINT HandTipLeft
              {
                OFFSET 0.284577 -6.395164 -1.229226
                CHANNELS 3 Zrotation Xrotation Yrotation
                End Site
                {
                  OFFSET 0 0 0
                }
              }
              JOINT ThumbLeft
              {
                OFFSET 3.317935 1.882968 -1.804137
                CHANNELS 3 Zrotation Xrotation Yrotation
                End Site
                {
                  OFFSET 0 0 0
                }
              }
            }
          }
        }
      }
      JOINT ShoulderRight
      {
        OFFSET 16.099869 -4.576403 0.601287
        CHANNELS 3 Zrotation Xrotation Yrotation
        JOINT ElbowRight
        {
          OFFSET 3.713620 -25.785666 0.981684
          CHANNELS 3 Zrotation Xrotation Yrotation
          JOINT WristRight
          {
            OFFSET -0.671570 -20.054067 -7.323057
            CHANNELS 3 Zrotation Xrotation Yrotation
            JOINT HandRight
            {
              OFFSET -1.437079 -3.363294 -0.268670
              CHANNELS 3 Zrotation Xrotation Yrotation
              JOINT HandTipRight
              {
                OFFSET 1.047111 -5.452881 -2.400496
                CHANNELS 3 Zrotation Xrotation Yrotation
                End Site
                {
                  OFFSET 0 0 0
                }
              }
              JOINT ThumbRight
              {
                OFFSET 2.765860 1.115655 -3.896267
                CHANNELS 3 Zrotation Xrotation Yrotation
                End Site
                {
                  OFFSET 0 0 0
                }
              }
            }
          }
        }
      }
    }
  }
  JOINT HipLeft
  {
    OFFSET -6.534679 1.132359 -4.058834
    CHANNELS 3 Zrotation Xrotation Yrotation
    JOINT KneeLeft
    {
      OFFSET -8.073230 -26.757378 1.410204
      CHANNELS 3 Zrotation Xrotation Yrotation
      JOINT AnkleLeft
      {
        OFFSET -1.555970 -33.526572 4.058520
        CHANNELS 3 Zrotation Xrotation Yrotation
        JOINT FootLeft
        {
          OFFSET -6.507489 -8.892988 -7.249934
          CHANNELS 3 Zrotation Xrotation Yrotation
          End Site
          {
            OFFSET 0 0 0
          }
        }
      }
    }
  }
  JOINT HipRight
  {
    OFFSET 5.189121 0.272619 -3.156499
    CHANNELS 3 Zrotation Xrotation Yrotation
    JOINT KneeRight
    {
      OFFSET 3.614780 -28.458679 5.309024
      CHANNELS 3 Zrotation Xrotation Yrotation
      JOINT AnkleRight
      {
        OFFSET 3.644637 -31.612066 6.412730
        CHANNELS 3 Zrotation Xrotation Yrotation
        JOINT FootRight
        {
          OFFSET 2.796792 -9.067765 -7.511001
          CHANNELS 3 Zrotation Xrotation Yrotation
          End Site
          {
            OFFSET 0 0 0
          }
        }
      }
    }
  }
}
MOTION
Frames: 5
Frame Time: 0.033333
75.457527 70.464606 398.312671 0.000000 0.000000 -4.401159 -0.000000 0.000000 4.401159 -0.000000 0.000000 0.000000 -0.000000 0.000000 0.000000 0.000000 0.000000 0.000000 -0.000000 0.000000 0.000000 -0.000000 0.000000 0.000000 -0.000000 0.000000 0.000000 -0.000000 0.000000 0.000000 0.000000 0.000000 0.000000 0.000000 0.000000 0.000000 -0.000000 0.000000 0.000000 -0.000000 0.000000 0.000000 -0.000000 0.000000 0.000000 -0.000000 0.000000 0.000000 0.000000 0.000000 0.000000 0.000000 0.000000 0.000000 -0.000000 0.000000 4.401159 -0.000000 0.000000 0.000000 -0.000000 0.000000 0.000000 0.000000 0.000000 0.000000 -0.000000 0.000000 4.401159 -0.000000 0.000000 0.000000 -0.000000 0.000000 0.000000 0.000000 0.000000 0.000000
75.471555 70.463436 398.327475 -0.052134 -0.032878 -4.541175 0.049367 0.036903 4.541144 -0.000000 0.000000 0.000000 -0.000000 0.000000 0.000000 0.000000 0.000000 0.000000 -0.000000 0.000000 0.000000 -0.000000 0.000000 0.000000 -1.234571 3.600118 1.503732 2.300829 -4.602266 -1.614469 0.000000 0.000000 0.000000 0.000000 0.000000 0.000000 -0.000000 0.000000 0.000000 -0.000000 0.000000 0.000000 -3.058141 0.708717 -0.039092 -0.552952 -4.489857 0.793740 0.000000 0.000000 0.000000 0.000000 0.000000 0.000000 0.049367 0.036903 4.541144 -0.000000 0.000000 0.000000 0.719248 -0.287348 -0.376795 0.000000 0.000000 0.000000 0.049367 0.036903 4.541144 -0.000000 0.000000 0.000000 -0.923643 2.141006 1.424203 0.000000 0.000000 0.000000
75.486511 70.460845 398.337313 -0.098171 -0.061673 -4.687272 0.092803 0.069489 4.687163 -0.000000 0.000000 0.000000 -0.939614 -0.016320 0.029777 0.000000 0.000000 0.000000 -0.000000 0.000000 0.000000 0.269379 -0.920367 -0.125881 -2.623430 7.592423 3.041202 4.065999 -8.654150 -2.828120 0.000000 0.000000 0.000000 0.000000 0.000000 0.000000 -0.000000 0.000000 0.000000 -0.000000 0.000000 0.000000 -5.271795 1.263805 -0.059199 -1.329732 -8.403653 1.201469 0.000000 0.000000 0.000000 0.000000 0.000000 0.000000 0.092803 0.069489 4.687163 -0.000000 0.000000 0.000000 1.071948 -0.515156 -0.497357 0.000000 0.000000 0.000000 0.092803 0.069489 4.687163 -0.465418 1.282114 0.058779 -1.220205 2.896611 2.595211 0.000000 0.000000 0.000000
75.502398 70.456834 398.342184 -0.138128 -0.086397 -4.839506 0.130347 0.097742 4.839290 -0.000000 0.000000 0.000000 -1.386557 0.032570 0.031636 0.000000 0.000000 0.000000 -0.000000 0.000000 0.000000 0.326755 -1.279105 -0.158995 -3.597768 10.435988 4.282445 5.332004 -12.037964 -3.719316 0.000000 0.000000 0.000000 0.000000 0.000000 0.000000 -0.000000 0.000000 0.000000 -0.000000 0.000000 0.000000 -6.868164 1.713781 -0.078074 -1.995708 -11.624329 1.321764 0.000000 0.000000 0.000000 0.000000 0.000000 0.000000 0.130347 0.097742 4.839290 -0.000000 0.000000 0.000000 1.062167 -0.681065 -0.365504 0.000000 0.000000 0.000000 0.130347 0.097742 4.839290 -0.642230 1.735192 0.079810 -1.581812 4.305072 3.563979 0.000000 0.000000 0.000000
75.519213 70.451402 398.342089 -0.172024 -0.107061 -4.997930 0.162043 0.121640 4.997597 -0.000000 0.000000 0.000000 -1.817873 0.119444 0.025416 0.000000 0.000000 0.000000 -0.000000 0.000000 0.000000 0.332849 -1.569889 -0.173029 -4.263257 12.590360 5.248672 6.126623 -14.680766 -4.354046 0.000000 0.000000 0.000000 0.000000 0.000000 0.000000 -0.811974 0.507365 0.045807 0.811600 -0.507963 -0.038614 -7.983400 2.091107 -0.105584 -2.335898 -14.082640 1.259547 0.000000 0.000000 0.000000 0.000000 0.000000 0.000000 0.162043 0.121640 4.997597 0.176244 0.819927 -0.017996 0.514307 -1.606724 0.043736 0.000000 0.000000 0.000000 0.162043 0.121640 4.997597 -0.785859 2.075614 0.094568 -1.696057 5.585446 4.229080 0.000000 0.000000 0.000000
